<?xml version="1.0" encoding="UTF-8" standalone="no"?>
<!-- Created with Inkscape (http://www.inkscape.org/) -->

<svg
   xmlns:dc="http://purl.org/dc/elements/1.1/"
   xmlns:cc="http://creativecommons.org/ns#"
   xmlns:rdf="http://www.w3.org/1999/02/22-rdf-syntax-ns#"
   xmlns:svg="http://www.w3.org/2000/svg"
   xmlns="http://www.w3.org/2000/svg"
   xmlns:sodipodi="http://sodipodi.sourceforge.net/DTD/sodipodi-0.dtd"
   xmlns:inkscape="http://www.inkscape.org/namespaces/inkscape"
   width="744.09448"
   height="1052.3622"
   viewBox="0 0 744.09449 1052.3622"
   id="svg2"
   version="1.1"
   inkscape:version="0.91 r13725"
   sodipodi:docname="cover.svg">
  <defs
     id="defs4" />
  <sodipodi:namedview
     id="base"
     pagecolor="#ffffff"
     bordercolor="#666666"
     borderopacity="1.0"
     inkscape:pageopacity="0.0"
     inkscape:pageshadow="2"
     inkscape:zoom="0.65281707"
     inkscape:cx="312.39712"
     inkscape:cy="560.56509"
     inkscape:document-units="px"
     inkscape:current-layer="layer2"
     showgrid="false"
     inkscape:window-width="1600"
     inkscape:window-height="872"
     inkscape:window-x="0"
     inkscape:window-y="0"
     inkscape:window-maximized="1"
     units="px" />
  <metadata
     id="metadata7">
    <rdf:RDF>
      <cc:Work
         rdf:about="">
        <dc:format>image/svg+xml</dc:format>
        <dc:type
           rdf:resource="http://purl.org/dc/dcmitype/StillImage" />
        <dc:title />
      </cc:Work>
    </rdf:RDF>
  </metadata>
  <g
     inkscape:label="background-tiles"
     inkscape:groupmode="layer"
     id="layer1"
     transform="translate(0,2.2107222e-5)"
     sodipodi:insensitive="true">
    <rect
       style="opacity:1;fill:#feebc8;fill-opacity:1;stroke:none;stroke-width:5;stroke-linecap:round;stroke-linejoin:round;stroke-miterlimit:4;stroke-dasharray:none;stroke-dashoffset:0;stroke-opacity:1"
       id="rect4177"
       width="744.09448"
       height="709.23389"
       x="0"
       y="76.591103" />
    <path
       style="opacity:1;fill:#f9a825;fill-opacity:1;stroke:none;stroke-width:5;stroke-linecap:round;stroke-linejoin:round;stroke-miterlimit:4;stroke-dasharray:none;stroke-dashoffset:0;stroke-opacity:1"
       d="M 744.09447,298.70545 1.0110937e-5,124.07766 l 0,-124.0776821 744.094459889063,0 z"
       id="path4301"
       inkscape:connector-curvature="0"
       sodipodi:nodetypes="ccccc" />
    <path
       style="opacity:1;fill:#e53e3e;fill-opacity:1;stroke:none;stroke-width:5;stroke-linecap:round;stroke-linejoin:round;stroke-miterlimit:4;stroke-dasharray:none;stroke-dashoffset:0;stroke-opacity:1"
       d="m 0,585.65673 744.09448,174.62779 0,124.07768 -744.09448,0 z"
       id="path4162"
       inkscape:connector-curvature="0"
       sodipodi:nodetypes="ccccc" />
    <path
       sodipodi:nodetypes="ccccc"
       inkscape:connector-curvature="0"
       id="path3360"
       d="M 744.09448,705.65673 0,880.28452 l 0,124.07768 744.09448,0 z"
       style="opacity:1;fill:#3182ce;fill-opacity:1;stroke:none;stroke-width:5;stroke-linecap:round;stroke-linejoin:round;stroke-miterlimit:4;stroke-dasharray:none;stroke-dashoffset:0;stroke-opacity:1" />
    <path
       style="opacity:1;fill:#805ad5;fill-opacity:1;stroke:none;stroke-width:5;stroke-linecap:round;stroke-linejoin:round;stroke-miterlimit:4;stroke-dasharray:none;stroke-dashoffset:0;stroke-opacity:1"
       d="m 0,753.65673 744.09448,174.62779 0,124.07768 -744.09448,0 z"
       id="rect3336"
       inkscape:connector-curvature="0"
       sodipodi:nodetypes="ccccc" />
    <rect
       y="412.06027"
       x="-1073.8077"
       height="366.10562"
       width="744.09448"
       id="rect3357"
       style="opacity:1;fill:#f9a825;fill-opacity:1;stroke:none;stroke-width:5;stroke-linecap:round;stroke-linejoin:round;stroke-miterlimit:4;stroke-dasharray:none;stroke-dashoffset:0;stroke-opacity:1" />
    <path
       sodipodi:nodetypes="ccccc"
       inkscape:connector-curvature="0"
       id="path3375"
       d="M 1.0110937e-5,298.70545 744.09447,124.07766 l 0,-124.077682107222 -744.094459889063,0 z"
       style="opacity:1;fill:#805ad5;fill-opacity:1;stroke:none;stroke-width:5;stroke-linecap:round;stroke-linejoin:round;stroke-miterlimit:4;stroke-dasharray:none;stroke-dashoffset:0;stroke-opacity:1" />
    <rect
       y="254.28253"
       x="-1994.4332"
       height="497.84238"
       width="744.09448"
       id="rect4179"
       style="opacity:1;fill:#feebc8;fill-opacity:1;stroke:none;stroke-width:5;stroke-linecap:round;stroke-linejoin:round;stroke-miterlimit:4;stroke-dasharray:none;stroke-dashoffset:0;stroke-opacity:1" />
    <path
       sodipodi:nodetypes="ccccc"
       inkscape:connector-curvature="0"
       id="path4181"
       d="m -1994.4332,551.95663 744.0945,174.62779 0,124.07768 -744.0945,0 z"
       style="opacity:1;fill:#38a169;fill-opacity:1;stroke:none;stroke-width:5;stroke-linecap:round;stroke-linejoin:round;stroke-miterlimit:4;stroke-dasharray:none;stroke-dashoffset:0;stroke-opacity:1" />
    <path
       style="opacity:1;fill:#319795;fill-opacity:1;stroke:none;stroke-width:5;stroke-linecap:round;stroke-linejoin:round;stroke-miterlimit:4;stroke-dasharray:none;stroke-dashoffset:0;stroke-opacity:1"
       d="m -1250.3387,671.95663 -744.0945,174.62779 0,124.07768 744.0945,0 z"
       id="path4183"
       inkscape:connector-curvature="0"
       sodipodi:nodetypes="ccccc" />
    <path
       sodipodi:nodetypes="ccccc"
       inkscape:connector-curvature="0"
       id="path4185"
       d="m -1994.4332,719.95663 744.0945,174.62779 0,124.07768 -744.0945,0 z"
       style="opacity:1;fill:#805ad5;fill-opacity:1;stroke:none;stroke-width:5;stroke-linecap:round;stroke-linejoin:round;stroke-miterlimit:4;stroke-dasharray:none;stroke-dashoffset:0;stroke-opacity:1" />
    <path
       style="opacity:1;fill:#d69e2e;fill-opacity:1;stroke:none;stroke-width:5;stroke-linecap:round;stroke-linejoin:round;stroke-miterlimit:4;stroke-dasharray:none;stroke-dashoffset:0;stroke-opacity:1"
       d="m -1250.3387,433.00535 -744.0945,-174.62779 0,-124.07768 744.0945,0 z"
       id="path4187"
       inkscape:connector-curvature="0"
       sodipodi:nodetypes="ccccc" />
    <path
       sodipodi:nodetypes="ccccc"
       inkscape:connector-curvature="0"
       id="path4189"
       d="m -1994.4332,313.00535 744.0945,-174.62779 0,-124.077682 -744.0945,0 z"
       style="opacity:1;fill:#dd6b20;fill-opacity:1;stroke:none;stroke-width:5;stroke-linecap:round;stroke-linejoin:round;stroke-miterlimit:4;stroke-dasharray:none;stroke-dashoffset:0;stroke-opacity:1" />
    <path
       style="opacity:1;fill:#e53e3e;fill-opacity:1;stroke:none;stroke-width:5;stroke-linecap:round;stroke-linejoin:round;stroke-miterlimit:4;stroke-dasharray:none;stroke-dashoffset:0;stroke-opacity:1"
       d="m -1250.3387,265.00535 -744.0945,-174.62779 0,-124.077682 744.0945,0 z"
       id="path4191"
       inkscape:connector-curvature="0"
       sodipodi:nodetypes="ccccc" />
  </g>
  <g
     inkscape:groupmode="layer"
     id="layer2"
     inkscape:label="background-items">
    <g
       id="g4232"
       transform="matrix(0.69990767,0,0,0.69990767,521.80578,753.33023)"
       style="fill:#ffffff">
      <path
         id="path4234"
         d="m 114.973,154.209 c 1.97,0 3.9,-0.8 5.3,-2.2 1.4,-1.4 2.2,-3.33 2.2,-5.3 0,-1.98 -0.8,-3.91 -2.2,-5.31 -1.4,-1.39 -3.33,-2.19 -5.3,-2.19 -1.98,0 -3.91,0.8 -5.31,2.19 -1.39,1.4 -2.19,3.33 -2.19,5.31 0,1.97 0.8,3.9 2.19,5.3 1.4,1.4 3.33,2.2 5.31,2.2 z"
         inkscape:connector-curvature="0"
         style="fill:#ffffff" />
      <path
         id="path4236"
         d="m 190.633,154.209 c 1.98,0 3.91,-0.8 5.31,-2.2 1.39,-1.4 2.19,-3.33 2.19,-5.3 0,-1.98 -0.8,-3.91 -2.19,-5.31 -1.4,-1.39 -3.33,-2.19 -5.31,-2.19 -1.97,0 -3.9,0.8 -5.3,2.19 -1.4,1.4 -2.2,3.33 -2.2,5.31 0,1.97 0.8,3.9 2.2,5.3 1.4,1.4 3.33,2.2 5.3,2.2 z"
         inkscape:connector-curvature="0"
         style="fill:#ffffff" />
      <path
         id="path4238"
         d="m 341.973,154.209 c 1.97,0 3.9,-0.8 5.3,-2.2 1.4,-1.4 2.2,-3.33 2.2,-5.3 0,-1.98 -0.8,-3.91 -2.2,-5.31 -1.4,-1.39 -3.33,-2.19 -5.3,-2.19 -1.98,0 -3.91,0.8 -5.31,2.19 -1.39,1.4 -2.19,3.33 -2.19,5.31 0,1.97 0.8,3.9 2.19,5.3 1.4,1.4 3.33,2.2 5.31,2.2 z"
         inkscape:connector-curvature="0"
         style="fill:#ffffff" />
      <path
         id="path4240"
         d="m 266.303,154.209 c 1.97,0 3.91,-0.8 5.3,-2.2 1.4,-1.4 2.2,-3.33 2.2,-5.3 0,-1.98 -0.8,-3.91 -2.2,-5.31 -1.39,-1.39 -3.33,-2.19 -5.3,-2.19 -1.97,0 -3.91,0.8 -5.3,2.19 -1.4,1.4 -2.2,3.33 -2.2,5.31 0,1.97 0.8,3.9 2.2,5.3 1.39,1.4 3.33,2.2 5.3,2.2 z"
         inkscape:connector-curvature="0"
         style="fill:#ffffff" />
      <path
         id="path4242"
         d="m 114.973,213.209 c 1.97,0 3.9,-0.8 5.3,-2.2 1.4,-1.4 2.2,-3.33 2.2,-5.3 0,-1.98 -0.8,-3.91 -2.2,-5.31 -1.4,-1.39 -3.33,-2.19 -5.3,-2.19 -1.98,0 -3.91,0.8 -5.31,2.19 -1.39,1.4 -2.19,3.33 -2.19,5.31 0,1.97 0.8,3.9 2.19,5.3 1.4,1.4 3.33,2.2 5.31,2.2 z"
         inkscape:connector-curvature="0"
         style="fill:#ffffff" />
      <path
         id="path4244"
         d="m 190.633,213.209 c 1.98,0 3.91,-0.8 5.31,-2.2 1.39,-1.4 2.19,-3.33 2.19,-5.3 0,-1.98 -0.8,-3.91 -2.19,-5.31 -1.4,-1.39 -3.33,-2.19 -5.31,-2.19 -1.97,0 -3.9,0.8 -5.3,2.19 -1.4,1.4 -2.2,3.33 -2.2,5.31 0,1.97 0.8,3.9 2.2,5.3 1.4,1.4 3.33,2.2 5.3,2.2 z"
         inkscape:connector-curvature="0"
         style="fill:#ffffff" />
      <path
         id="path4246"
         d="m 341.973,213.209 c 1.97,0 3.9,-0.8 5.3,-2.2 1.4,-1.4 2.2,-3.33 2.2,-5.3 0,-1.98 -0.8,-3.91 -2.2,-5.31 -1.4,-1.39 -3.33,-2.19 -5.3,-2.19 -1.98,0 -3.91,0.8 -5.31,2.19 -1.39,1.4 -2.19,3.33 -2.19,5.31 0,1.97 0.8,3.9 2.19,5.3 1.4,1.4 3.33,2.2 5.31,2.2 z"
         inkscape:connector-curvature="0"
         style="fill:#ffffff" />
      <path
         id="path4248"
         d="m 266.303,213.209 c 1.97,0 3.91,-0.8 5.3,-2.2 1.4,-1.4 2.2,-3.33 2.2,-5.3 0,-1.98 -0.8,-3.91 -2.2,-5.31 -1.39,-1.39 -3.33,-2.19 -5.3,-2.19 -1.97,0 -3.91,0.8 -5.3,2.19 -1.4,1.4 -2.2,3.33 -2.2,5.31 0,1.97 0.8,3.9 2.2,5.3 1.39,1.4 3.33,2.2 5.3,2.2 z"
         inkscape:connector-curvature="0"
         style="fill:#ffffff" />
      <path
         id="path4250"
         d="m 420.894,199.736 0,-56.35 c 0,-31.97 -26.009,-57.979 -57.979,-57.979 l -268.89,0 c -31.97,0 -57.979,26.009 -57.979,57.979 l 0,56.35 C 15.867,201.562 0,218.565 0,239.212 c 0,13.165 6.466,25.291 17.145,32.643 l 0,50.354 c 0,11.881 8.256,21.863 19.331,24.527 l 0,17.297 c 0,4.142 3.358,7.5 7.5,7.5 l 37.148,0 c 4.142,0 7.5,-3.358 7.5,-7.5 l 0,-16.593 279.693,0 0,16.594 c 0,4.142 3.358,7.5 7.5,7.5 l 37.148,0 c 4.142,0 7.5,-3.358 7.5,-7.5 l 0,-17.297 c 11.075,-2.665 19.331,-12.647 19.331,-24.527 l 0,-50.354 c 10.679,-7.352 17.145,-19.479 17.145,-32.643 -10e-4,-20.648 -15.868,-37.651 -36.047,-39.477 z m -326.869,-99.33 268.889,0 c 23.699,0 42.979,19.28 42.979,42.979 l 0,57.857 c -16.322,4.909 -28.249,20.069 -28.249,37.969 l 0,12.124 -298.35,0 0,-12.124 c 0,-17.9 -11.927,-33.06 -28.249,-37.969 l 0,-57.857 c 10e-4,-23.699 19.281,-42.979 42.98,-42.979 z m 281.791,232.034 -294.692,0 -1.829,0 0,-12.545 298.351,0 0,12.545 -1.83,0 z m 1.83,-27.545 -298.352,0 0,-38.56 298.351,0 0,38.56 z m -345.5,17.314 0,-54.229 c 0.008,-0.178 0.009,-0.357 0.004,-0.537 -0.073,-2.706 -1.6,-5.163 -3.993,-6.428 -8.115,-4.287 -13.156,-12.642 -13.156,-21.803 0,-13.59 11.057,-24.647 24.647,-24.647 13.59,0 24.647,11.057 24.647,24.647 l 0,93.229 -20.318,0 -1.6,0 c -5.642,-10e-4 -10.231,-4.59 -10.231,-10.232 z m 41.479,34.325 -22.148,0 0,-9.094 20.319,0 1.829,0 0,9.094 z m 331.84,0 -22.148,0 0,-9.094 1.829,0 20.319,0 0,9.094 z m 23.32,-95.518 c -2.394,1.265 -3.916,3.724 -3.99,6.43 -0.004,0.146 -0.003,0.292 10e-4,0.438 l 0,54.325 c 0,5.642 -4.589,10.231 -10.231,10.231 l -1.6,0 -20.319,0 0,-93.229 c 0,-13.59 11.057,-24.647 24.647,-24.647 13.591,0 24.647,11.057 24.647,24.647 10e-4,9.162 -5.04,17.517 -13.155,21.805 z"
         inkscape:connector-curvature="0"
         style="fill:#ffffff" />
    </g>
    <g
       id="g4327"
       transform="matrix(0.29089726,-0.24579895,0.24579896,0.29089728,-61.642089,724.60729)"
       style="fill:#ffffff">
      <path
         id="path4309"
         d="m 11.976562,194.03125 c 9.878907,4.65625 21.320313,4.64844 31.191407,-0.0156 3.8125,1.33985 6.933593,4.13672 8.679687,7.78125 1.65625,4.78516 -0.941406,12.10157 -7.308594,20.59766 -27.628906,36.83984 -51.390624,71.51953 -38.816406,91.00781 3.496094,5.06641 8.878906,8.52344 14.945313,9.59375 12.300781,52.96485 52.75,94.86328 105.250001,109.01563 30.90234,9.3789 62.83203,14.9375 95.08203,16.55469 16.87891,0.34375 33.59375,3.34765 49.53125,8.91015 15.79297,5.29688 31.11328,11.90235 45.8125,19.7461 15.26562,9.4414 32.80469,14.5664 50.75391,14.82421 32.13281,-0.94531 61.55078,-18.25 77.98828,-45.8789 4.92969,-8.02344 10.04297,-19.08203 6.44531,-26.19922 -2.76953,-5.24219 -7.71484,-8.98828 -13.51172,-10.23828 1,-12.26953 1.25391,-22.52344 1.26563,-23.03906 0.10547,-4.71094 -3.625,-8.61719 -8.33594,-8.72657 -2.27735,-0.11328 -4.50391,0.71485 -6.15235,2.28907 -1.65234,1.57812 -2.58203,3.76171 -2.57031,6.04296 0,0.125 -0.25,9.91016 -1.17969,21.51172 l -0.71484,-0.0391 c -3.32812,-0.17969 -7.01953,-0.42187 -10.89844,-0.73828 1.82032,-16.52344 2.26563,-33.39453 2.28907,-34.22656 0.11718,-4.71094 -3.60157,-8.625 -8.3125,-8.7461 -2.28125,-0.12109 -4.50782,0.69922 -6.16407,2.27344 -1.65234,1.57031 -2.58593,3.75391 -2.58203,6.03906 -0.008,0.19532 -0.44531,16.55469 -2.13672,32.26563 -4.09765,-0.75 -8.21093,-1.67578 -12.28906,-2.76172 2.52344,-13.51953 3.83594,-27.23438 3.92578,-40.98438 0,-4.71484 -3.82031,-8.53515 -8.53515,-8.53515 -4.71094,0 -8.53125,3.82031 -8.53125,8.53515 -0.10938,11.99219 -1.1836,23.95704 -3.21875,35.77344 -3.89063,-1.47265 -7.84766,-3.13281 -11.86719,-4.98047 1.50781,-15.3125 1.92187,-29.86718 1.9414,-30.5625 0.125,-4.70703 -3.58593,-8.63281 -8.29687,-8.76172 -2.27734,-0.12109 -4.50781,0.69922 -6.16406,2.26563 -1.65625,1.57031 -2.59766,3.75 -2.60157,6.03125 0,0.14062 -0.29296,10.46094 -1.26171,22.57422 -4.16797,-2.375 -8.33204,-4.92188 -12.49219,-7.63672 1.0039,-12.29688 1.28125,-22.53125 1.28906,-23.01563 0.0625,-2.26171 -0.78125,-4.45703 -2.33984,-6.09765 -1.5586,-1.64063 -3.70703,-2.59766 -5.96875,-2.65235 -2.27344,-0.0976 -4.48828,0.73047 -6.13672,2.29688 -1.64844,1.56641 -2.59375,3.73437 -2.61328,6.01172 0,0.0781 -0.13672,4.95703 -0.53516,11.85937 -4.57031,-3.53515 -9.17969,-7.35937 -13.83203,-11.47265 0.92187,-12.03125 1.20703,-21.91407 1.21875,-22.375 0.12891,-4.71094 -3.58203,-8.63282 -8.29297,-8.76563 -2.28906,-0.16406 -4.54297,0.64063 -6.20703,2.21485 -1.66797,1.57812 -2.59766,3.78125 -2.55859,6.07812 0,0.0625 -0.0937,3.19922 -0.32813,8.00781 -2.98047,-2.83984 -5.94141,-5.67968 -8.82812,-8.46875 -32.80079,-31.67578 -64.07032,-61.72656 -125.59766,-63.91797 10.54687,-6.64453 22.75,-9.08203 43.41797,-3.90625 30.08594,7.30079 61.36719,8.21485 91.82812,2.69141 2.13282,-0.26953 4.33203,-0.54297 6.52735,-0.81641 -0.50782,1.06641 -1.00391,2.09375 -1.49219,3.04688 -1.37891,2.71875 -1.20703,5.96484 0.45703,8.52344 1.66406,2.55468 4.5625,4.02734 7.60938,3.86328 3.04296,-0.16016 5.76953,-1.9375 7.15234,-4.65235 1.81641,-3.57812 3.73047,-7.76562 5.88672,-12.88671 5.05469,-0.4375 10.36328,-0.77344 15.93359,-1 -0.95312,2.12109 -1.92187,4.21484 -2.90625,6.15625 -1.43359,2.72656 -1.28906,6.01171 0.37891,8.59765 1.66797,2.58594 4.60156,4.07422 7.67187,3.89453 3.07422,-0.17968 5.8086,-2.0039 7.16407,-4.76562 2.27343,-4.48438 4.46093,-9.5 6.37109,-14.10547 3.375,0.0664 6.91797,0.21875 10.51172,0.40234 -2.36328,5.70313 -4.53906,10.58985 -6.52344,14.5586 -2.10937,4.21484 -0.39844,9.33984 3.81641,11.44922 4.21484,2.10546 9.33984,0.39843 11.44922,-3.81641 2.7539,-5.50781 5.77734,-12.4375 9.15234,-20.88672 5.28906,0.51172 10.37109,0.75 15.34375,0.85156 -1.80859,4.32813 -3.69922,8.58985 -5.61328,12.375 -1.375,2.71875 -1.19531,5.96875 0.47265,8.51953 1.67188,2.55469 4.57422,4.01954 7.61719,3.85157 3.04688,-0.16797 5.76953,-1.94922 7.14453,-4.67188 3.20703,-6.34375 6.27344,-13.6875 9.01563,-20.61328 5.79297,-0.46484 11.32422,-1.17969 16.60156,-2.11328 -2.0664,5.04297 -4.38672,10.36328 -6.73437,15.05859 -2.10938,4.21875 -0.39844,9.34375 3.8164,11.45313 4.21485,2.10547 9.34375,0.39844 11.44922,-3.81641 4.52344,-9.04687 8.875,-20.01953 11.71094,-27.55859 5.13672,-1.57813 10.01172,-3.29688 14.48047,-5.14844 -2.23828,5.53125 -4.77344,11.40234 -7.33203,16.55469 -1.38282,2.73437 -1.19532,6 0.49218,8.55859 1.6875,2.55469 4.61719,4.01172 7.67578,3.8125 3.05469,-0.19922 5.77344,-2.01953 7.11719,-4.77344 5.53906,-11.67187 10.45703,-23.625 14.73047,-35.8164 3.69141,-2.30469 6.89844,-4.51172 9.62109,-6.54297 -1.02734,6.11328 -2.875,12.05859 -5.49609,17.67969 -2.10547,4.21484 -0.39844,9.33984 3.81641,11.44922 4.21484,2.10937 9.34375,0.39843 11.44922,-3.81641 5.90625,-13.83594 9.08984,-28.67578 9.375,-43.71875 4.89062,-5.53906 7.89843,-12.48438 8.59765,-19.83984 0,-83.69141 -25.14062,-132.414066 -74.73047,-144.808598 C 404.625,40.378906 375.39062,43.488281 347.09766,46.5 314.875,49.929688 281.57031,53.476562 241.79687,40.21875 c -21.875,-7.363281 -43.2539,-16.128906 -64,-26.234375 C 151.03906,1.363281 134.87109,-6.242188 114.89453,7.082031 101.21875,18.179688 89.738281,31.734375 81.046875,47.054688 70.570312,62.855469 59.742188,79.195312 48.664062,82.886719 c -28.105468,9.363281 -48.5,45.070311 -48.5,84.894531 -1.101562,10.24219 3.414063,20.28125 11.8125,26.25 z M 278.42187,362.42969 c 9.65235,8.83984 19.91797,16.98437 30.71875,24.375 0.47266,0.36328 1.0586,0.76953 2.02344,1.41015 8.63281,5.79297 17.61719,11.05078 26.89453,15.74219 0.14844,0.10156 0.3125,0.17969 0.46875,0.26953 l 0.21875,0.12891 c 0.1211,0.0664 0.23047,0.14453 0.35547,0.20312 9.10938,4.52735 18.54297,8.36328 28.22266,11.48438 l 0.0664,0.0156 0.0195,0 c 9.82812,3.14844 19.91796,5.42578 30.14843,6.80469 0.32422,0.0859 0.65625,0.15234 0.99219,0.20313 l 0.0625,0.0195 0.0742,0.008 0.0977,0.0195 c 7.94531,1.00781 14.98046,1.38672 20.63671,1.6875 3.16016,0.17188 6.01954,0.31641 8.61329,0.5625 2.55859,0.0625 5.08984,0.58203 7.46484,1.54297 -2.47266,10.49219 -26.95312,48.07422 -68.40234,48.07422 -15.2461,-0.25391 -30.1211,-4.73828 -42.96875,-12.94531 -15.46094,-8.2461 -31.58204,-15.1836 -48.19922,-20.75 -17.375,-6.05079 -35.59375,-9.34375 -53.99219,-9.75391 -31.04687,-1.57422 -61.78516,-6.94141 -91.53125,-15.98438 -44.832031,-12.01562 -79.84375,-47.04296 -91.835938,-91.88281 4.925782,-0.53906 9.816407,-1.36719 14.644532,-2.48828 10.628906,-2.32031 20.9375,-5.91406 30.707031,-10.70312 18.589845,19.91015 41.585935,35.1875 67.140625,44.60156 17.68359,6.04687 35.91016,10.375 54.42188,12.92578 16.32031,2.03906 32.30078,6.24219 47.50781,12.50391 4.3789,1.7539 9.34375,-0.375 11.09765,-4.75391 1.75,-4.375 -0.3789,-9.34375 -4.7539,-11.09375 -16.41797,-6.74609 -33.65625,-11.28906 -51.26172,-13.52344 -17.55859,-2.39453 -34.84375,-6.49609 -51.60547,-12.24218 -21.63672,-7.98047 -41.21094,-20.71485 -57.277344,-37.25782 8.132814,-5.6914 15.781254,-12.03906 22.871094,-18.98047 68.62109,-4.25 99.03125,24.99219 134.08594,58.83985 7.10547,6.86719 14.45703,13.96875 22.27344,20.9375 z M 54.0625,99.074219 C 70.71875,93.53125 82.644531,75.535156 95.273438,56.484375 102.83203,43.136719 112.67969,31.21875 124.36328,21.28125 c 11.44531,-7.640625 19.61719,-4.375 46.16016,8.136719 21.36328,10.386719 43.36718,19.402343 65.875,26.992187 43.30468,14.429688 78.47656,10.683594 112.50781,7.058594 28.03906,-2.992188 54.51953,-5.8125 84.39062,1.65625 41.00782,10.25 61.80079,53.40625 61.80079,128.25391 -2.65625,7.53906 -7.4961,14.11718 -13.90625,18.89453 -10.19532,9.21875 -48.52344,38.80078 -113.2461,32.34765 -12.94922,-1.29297 -24.45703,-1.76172 -35.07031,-1.77343 -0.20703,-0.004 -0.40625,-0.0156 -0.60937,0 -19,0.16796 -37.96485,1.60937 -56.77344,4.3125 -28.35547,5.2539 -57.5,4.46093 -85.52735,-2.32032 -41.9375,-10.47656 -59.26953,6.03516 -77.625,23.52344 -16.753902,18.19531 -38.679684,30.81641 -62.832028,36.15625 -24.839843,5.51563 -29.050781,0.25 -29.449218,-0.36719 -7.167969,-11.11328 26.921875,-56.57812 38.125,-71.51172 10.234375,-13.64062 13.5,-25.95312 9.722656,-36.60546 -4.214844,-9.71875 -12.722656,-16.91797 -23.003906,-19.46485 -1.96875,-0.48437 -4.042969,-0.26172 -5.863282,0.63281 -5.496093,3.1211 -12,3.94922 -18.105468,2.30469 -3.222656,-2.01172 -3.703125,-8.21094 -3.703125,-11.72656 0,-32.17188 15.832031,-61.70703 36.832031,-68.707031 z m 0,0"
         inkscape:connector-curvature="0"
         style="fill:#ffffff" />
      <path
         id="path4311"
         d="m 461.21875,152.78516 c 1.19531,4.51171 5.79297,7.22265 10.32031,6.08984 4.52735,-1.13281 7.30469,-5.69141 6.23438,-10.23047 -4.48828,-20.44141 -14.06641,-39.41406 -27.84375,-55.164061 -3.33985,-3.253907 -8.67188,-3.222657 -11.97657,0.06641 -3.30468,3.289063 -3.35546,8.621091 -0.11328,11.976561 11.51172,13.625 19.53516,29.84375 23.37891,47.26172 z m 0,0"
         inkscape:connector-curvature="0"
         style="fill:#ffffff" />
      <path
         id="path4313"
         d="m 401.23047,176.3125 c 6.65234,0.38672 13.22656,-1.62109 18.52734,-5.66016 4.5,-3.85547 7.00781,-9.53515 6.82813,-15.45312 0.004,-16.15235 -17.07813,-38.61719 -33.89063,-38.61719 -14.49219,0 -23.46484,15.50391 -23.46484,29.86328 -0.19531,8.36328 3.1875,16.40625 9.30078,22.11328 6.11328,5.70703 14.37109,8.52735 22.69922,7.75391 z m -8.53516,-42.66406 c 9.04297,3.67968 15.44922,11.88672 16.82813,21.55078 0,1.75781 -0.55469,2.22656 -0.79297,2.42578 -2.25391,1.35547 -4.89063,1.92578 -7.5,1.62109 -12.34375,0 -14.9336,-6.96093 -14.9336,-12.80078 0,-6.9414 3.92579,-12.79687 6.39844,-12.79687 z m 0,0"
         inkscape:connector-curvature="0"
         style="fill:#ffffff" />
      <path
         id="path4315"
         d="m 256.16406,150.71484 c -1.3789,19.07813 10.78906,36.51953 29.17578,41.8125 2.33203,0.5586 4.72657,0.84766 7.12891,0.85157 9.42969,0.28515 18.1875,-4.86329 22.52734,-13.24219 5.01563,-10.04297 23.64453,-4.3086 23.80078,-4.25781 2.60157,0.86718 5.46485,0.42968 7.6875,-1.17579 2.22657,-1.60156 3.54688,-4.17968 3.54688,-6.92187 0,-45.94141 -44.125,-76.800781 -85.33594,-76.800781 -5.0625,-0.363281 -10.0039,1.652343 -13.37109,5.449219 -4.55078,5.933592 -2.60938,13.179692 -0.15235,22.359372 3.1211,10.36328 4.80079,21.10547 4.99219,31.92578 z m 75.77735,6.49219 c -12.89844,-2.28516 -25.82813,3.85156 -32.21485,15.28906 -2.27343,3.4336 -6.60937,4.85157 -10.46875,3.42578 -7.39453,-1.74218 -16.02734,-9.39453 -16.02734,-25.20703 -0.16406,-12.3125 -2.03906,-24.54687 -5.57031,-36.34375 -0.55469,-2.0664 -1.1875,-4.43359 -1.59766,-6.30859 25.75781,0.58203 59.60547,17.5625 65.87891,49.14453 z m 0,0"
         inkscape:connector-curvature="0"
         style="fill:#ffffff" />
      <path
         id="path4317"
         d="m 177.6875,142.01562 c 3.39844,0.5586 6.71875,1.53516 9.87891,2.89844 -0.84375,1.3711 -2.21875,3.19141 -3.22657,4.53516 -4.93359,6.55078 -15.20703,20.17187 -2.47656,32.89844 15.19531,15.20312 29.12109,23.03515 40.26563,23.03515 5.4375,0.082 10.67187,-2.07422 14.46875,-5.96875 8.13671,-8.13672 2.9375,-19.75 -1.65625,-30 -3.76172,-8.39844 -8.01954,-17.92187 -5.27735,-23.41406 6.1211,-14.94531 4.57422,-31.93359 -4.15234,-45.52734 -6.125,-9.917972 -21.38281,-26.558598 -54.67969,-26.558598 -12.82031,0 -25.00391,13.679688 -26.60547,29.871098 -1.48047,14.94922 6.53125,32.84765 33.46094,38.23046 z m -6.85547,-51.035151 c 23.76563,0 34.96094,10.042971 40.16406,18.460941 5.6211,8.57031 6.87891,19.28515 3.40235,28.92187 -6.35938,12.72266 -0.082,26.75391 4.96875,38.02734 1.82031,3.67579 3.28906,7.51954 4.38281,11.47657 -2.71875,0.46484 -5.51563,0.0234 -7.95703,-1.26172 -8.19531,-4.10547 -15.60156,-9.63281 -21.86328,-16.32422 -1.53516,-1.53516 -2.23828,-2.23828 4.03906,-10.55859 5.71094,-5.30079 8.17969,-13.23829 6.48047,-20.84375 -3.2461,-8.50782 -13.65625,-11.64844 -23.41016,-13.59766 -13.78125,-2.75781 -20.82031,-9.79297 -19.82812,-19.8125 0.83984,-8.515625 6.74609,-14.488281 9.62109,-14.488281 z m 0,0"
         inkscape:connector-curvature="0"
         style="fill:#ffffff" />
      <path
         id="path4319"
         d="m 76.964844,142.17969 c 8.386718,0 17.066406,25.34375 17.066406,34.13281 0,1.75 -0.722656,6.47266 -1.355469,10.63281 -2.824219,18.53516 -4.140625,30.2461 1.335938,36.62891 2.128906,2.51172 5.257812,3.95703 8.550781,3.9414 11.46094,-1.69531 21.67188,-8.16015 28.10547,-17.79296 7.70703,-10.375 9.80078,-23.88672 5.58984,-36.10938 -2.875,-11.83984 -4.33203,-23.97656 -4.33984,-36.16016 C 130.75,113.41797 129.64844,90.71875 114.91406,83.351562 110.26563,81.023438 100.54688,78.875 87.753906,90.5 c -9.945312,9.046875 -26.019531,32.32813 -21.285156,44.57422 1.644531,4.34765 5.847656,7.19531 10.496094,7.10547 z m 26.218746,-42.11328 c 2.28125,-1.421879 3.73829,-1.632816 4.09766,-1.449222 5.80078,2.902342 6.87891,25.023442 7.59375,39.667972 0.0156,13.74218 1.76172,27.42578 5.19531,40.73046 2.3711,6.60547 1.41797,13.94532 -2.55859,19.72657 -2.64453,3.94531 -6.12891,7.2539 -10.20703,9.6875 0.23047,-5.69532 1.51953,-14.14453 2.24609,-18.90625 0.79688,-4.36719 1.3125,-8.77735 1.54688,-13.21094 0,-8.19141 -7.3125,-43.63281 -27.500004,-50.16016 4.054688,-10.30468 10.824219,-19.3164 19.585934,-26.08593 z m 0,0"
         inkscape:connector-curvature="0"
         style="fill:#ffffff" />
    </g>
    <g
       id="g4668"
       transform="matrix(0.45843523,0.10346937,-0.10346937,0.45843523,168.75337,807.30479)"
       style="fill:#ffffff">
      <path
         id="path4654"
         d="m 327.99609,184 -263.999996,0 c -4.417969,0 -8,3.58203 -8,8 l 0,88 c 0.05078,23.21094 7.863281,45.73828 22.191406,64 l -70.191406,0 c -2.351563,0 -4.582032,1.03516 -6.101563,2.82812 -1.519531,1.79297 -2.171875,4.16407 -1.785156,6.48438 l 3.542969,21.25391 C 6.8125,393.88672 23.53125,408.05469 43.109375,408 l 265.773435,0 c 19.57813,0.0547 36.30078,-14.11328 39.45703,-33.43359 l 3.54297,-21.25391 c 0.38672,-2.32031 -0.26562,-4.69141 -1.78515,-6.48438 C 348.57813,345.03516 346.34766,344 343.99609,344 l -70.17578,0 c 5.14063,-6.50391 9.47657,-13.60156 12.92188,-21.14453 l 57.94922,-16.69531 c 23.43359,-7.23047 39.38671,-28.92579 39.30468,-53.44922 l 0,-12.71094 c -0.0351,-30.91406 -25.08593,-55.96484 -56,-56 z m -32,48 25.35938,0 c 7.29297,0.082 13.42187,5.50391 14.38672,12.73437 0.96484,7.23047 -3.52344,14.07032 -10.53906,16.06641 l -29.20704,8 z M 332.5625,371.94531 C 330.66016,383.53516 320.62891,392.03125 308.88281,392 L 43.109375,392 C 31.363281,392.0312 21.332031,383.53516 19.429688,371.94531 L 17.445312,360 334.54687,360 Z M 99.730469,344 C 82.074219,327.39453 72.039062,304.24219 71.996094,280 l 0,-80 207.999996,0 0,80 c -0.0391,24.24609 -10.08593,47.40234 -27.75781,64 z M 367.99609,252.71094 c 0.0742,17.45312 -11.23828,32.91406 -27.89453,38.12109 l -47.12109,13.60156 c 1.49219,-6.21875 2.40234,-12.55859 2.71875,-18.94531 l 33.72265,-9.19922 c 14.84375,-4.03125 24.40625,-18.42968 22.36719,-33.67578 C 349.75,227.36719 336.73828,215.98828 321.35547,216 l -25.35938,0 0,-16 32,0 c 22.08203,0.0273 39.97266,17.91797 40,40 z m 0,0"
         inkscape:connector-curvature="0"
         style="fill:#ffffff" />
      <path
         id="path4656"
         d="m 159.99609,160 c 0,4.41797 3.58203,8 8,8 4.41797,0 8,-3.58203 8,-8 -0.18359,-7.58203 2.19922,-15.00391 6.76172,-21.0625 6.20313,-8.61328 9.44922,-19.00391 9.23828,-29.61719 0.20703,-10.605466 -3.03515,-20.992185 -9.23047,-29.60156 -4.57031,-6.0625 -6.95703,-13.488281 -6.76953,-21.078125 -0.18359,-7.578125 2.19922,-14.996094 6.76172,-21.046875 6.20703,-8.601562 9.44922,-18.988281 9.23828,-29.59375 0,-4.417969 -3.58203,-8 -8,-8 -4.41797,0 -8,3.582031 -8,8 0.1875,7.578125 -2.19531,14.996094 -6.75781,21.046875 -6.20703,8.601563 -9.45312,18.988281 -9.24219,29.59375 -0.20703,10.605469 3.03907,20.992187 9.24219,29.597656 4.5625,6.066407 6.94531,13.496099 6.75781,21.082029 0.1836,7.58594 -2.19922,15.01172 -6.76953,21.07031 -6.19922,8.61329 -9.4375,19 -9.23047,29.60938 z m 0,0"
         inkscape:connector-curvature="0"
         style="fill:#ffffff" />
      <path
         id="path4658"
         d="m 111.61328,36.238281 c 2.33985,-3.753906 1.19531,-8.695312 -2.5625,-11.039062 -3.7539,-2.339844 -8.69531,-1.195313 -11.039061,2.5625 l -0.800781,1.292969 c -6.195313,8.605468 -9.425782,18.984374 -9.214844,29.585937 -0.207032,10.605469 3.039062,20.992187 9.242187,29.597656 4.562499,6.066407 6.945309,13.496099 6.757809,21.082029 0.17969,7.58594 -2.20312,15.01563 -6.769528,21.07813 l -0.855468,1.36328 c -2.339844,3.7539 -1.195313,8.69531 2.5625,11.03906 3.753906,2.33984 8.695316,1.19531 11.039066,-2.5625 l 0.80078,-1.30078 c 6.19922,-8.61328 9.43359,-19.00781 9.22265,-29.61719 0.20704,-10.605466 -3.03515,-20.992185 -9.23046,-29.60156 -4.57032,-6.0625 -6.95704,-13.488281 -6.76954,-21.078125 -0.18359,-7.574219 2.19922,-14.988281 6.76172,-21.039063 z m 0,0"
         inkscape:connector-curvature="0"
         style="fill:#ffffff" />
      <path
         id="path4660"
         d="m 255.61328,36.238281 c 2.33984,-3.753906 1.19531,-8.695312 -2.5625,-11.039062 -3.75391,-2.339844 -8.69531,-1.195313 -11.03906,2.5625 l -0.80078,1.292969 c -6.19532,8.605468 -9.42578,18.984374 -9.21485,29.585937 -0.20703,10.605469 3.03907,20.992187 9.24219,29.597656 4.5625,6.066407 6.94531,13.496099 6.75781,21.082029 0.17969,7.58594 -2.20312,15.01563 -6.76953,21.07813 l -0.85547,1.36328 c -2.33984,3.7539 -1.19531,8.69531 2.5625,11.03906 3.75391,2.33984 8.69532,1.19531 11.03907,-2.5625 l 0.80078,-1.30078 c 6.19922,-8.61328 9.43359,-19.00781 9.22265,-29.61719 0.20703,-10.605466 -3.03515,-20.992185 -9.23047,-29.60156 -4.57031,-6.0625 -6.95703,-13.488281 -6.76953,-21.078125 -0.18359,-7.574219 2.19922,-14.988281 6.76172,-21.039063 z m 0,0"
         inkscape:connector-curvature="0"
         style="fill:#ffffff" />
    </g>
    <g
       id="g4241"
       transform="matrix(1.784018,-1.8586563,1.8586563,1.784018,-60.50653,77.696853)"
       style="fill:#ffffff">
      <path
         id="path4243"
         d="M 63,4.266 63,4.043 C 63,2.365 61.635,1 59.957,1 59.051,1 58.198,1.399 57.619,2.095 L 32,32.838 6.381,2.096 C 5.802,1.399 4.949,1 4.043,1 2.365,1 1,2.365 1,4.043 L 1,4.266 C 1,4.971 1.247,5.659 1.695,6.202 L 27.807,37.87 13.831,54.64 C 13.641,54.869 13.361,55 13.063,55 L 5,55 c -2.206,0 -4,1.794 -4,4 0,2.206 1.794,4 4,4 l 8.114,0 c 1.498,0 2.904,-0.663 3.857,-1.819 L 32,42.955 47.028,61.181 C 47.981,62.337 49.388,63 50.886,63 L 59,63 c 2.206,0 4,-1.794 4,-4 0,-2.206 -1.794,-4 -4,-4 l -8.063,0 C 50.639,55 50.36,54.869 50.169,54.64 L 36.193,37.869 62.305,6.202 C 62.753,5.659 63,4.971 63,4.266 Z M 22.255,47.656 49.16,15.37 l 1.849,1.387 -26.74,32.43 z m 0.741,3.076 -1.409,1.709 -2.042,-1.532 1.429,-1.715 z M 3,4.266 3,4.043 C 3,3.468 3.468,3 4.043,3 4.354,3 4.646,3.137 4.844,3.375 L 13.558,13.832 11.717,15.213 3.238,4.93 C 3.085,4.743 3,4.508 3,4.266 Z M 12.99,16.757 14.839,15.37 30.698,34.4 29.11,36.306 Z M 3,59 C 3,57.897 3.897,57 5,57 L 5.596,57 9.589,61 5,61 C 3.897,61 3,60.103 3,59 Z m 12.429,0.909 C 14.856,60.602 14.014,61 13.114,61 l -0.699,0 -3.993,-4 4.641,0 c 0.893,0 1.733,-0.394 2.305,-1.08 l 2.895,-3.474 2.05,1.538 z m 25.576,-9.177 2.022,-1.538 1.429,1.715 -2.042,1.532 z M 61,59 c 0,1.103 -0.897,2 -2,2 l -4.589,0 3.993,-4 0.596,0 c 1.103,0 2,0.897 2,2 z m -10.063,-2 4.641,0 -3.993,4 -0.699,0 c -0.899,0 -1.742,-0.398 -2.314,-1.091 l -4.885,-5.924 2.05,-1.538 2.895,3.474 C 49.203,56.606 50.044,57 50.937,57 Z m -9.192,-9.344 -2.013,1.532 -6.435,-7.804 1.602,-1.943 z M 61,4.266 C 61,4.508 60.915,4.743 60.762,4.93 L 52.283,15.213 50.442,13.832 59.156,3.375 C 59.354,3.137 59.646,3 59.957,3 60.532,3 61,3.468 61,4.043 Z"
         inkscape:connector-curvature="0"
         style="fill:#ffffff" />
      <path
         id="path4245"
         d="m 32,53 c -3.484,0 -7,0.928 -7,3 l 0,4 c 0,2.072 3.516,3 7,3 3.484,0 7,-0.928 7,-3 l 0,-4 c 0,-2.072 -3.516,-3 -7,-3 z m 0,2 c 2.764,0 4.439,0.63 4.909,1 -0.47,0.37 -2.146,1 -4.909,1 -2.763,0 -4.439,-0.63 -4.909,-1 0.47,-0.37 2.145,-1 4.909,-1 z m 0,6 c -2.989,0 -4.706,-0.737 -5,-1.085 l 0,-1.718 c 1.334,0.544 3.169,0.803 5,0.803 1.831,0 3.666,-0.259 5,-0.803 l 0,1.718 C 36.706,60.263 34.989,61 32,61 Z"
         inkscape:connector-curvature="0"
         style="fill:#ffffff" />
    </g>
    <g
       id="g3"
       transform="matrix(0.35567529,0.09924797,-0.09924797,0.35567529,555.49521,3.0215548)"
       style="fill:#ffffff;fill-opacity:1">
      <path
         d="m 37.68,250.453 c -2.24,3.358 -2.24,7.735 0,11.094 l 11.5,17.251 C 65.398,303.12 64.473,337.704 46.984,361.026 39.798,370.593 36,381.995 36,394 c 0,30.327 24.673,55 55,55 1.763,0 3.512,-0.082 5.244,-0.244 C 96.082,450.488 96,452.237 96,454 c 0,29.855 24.103,58 55,58 10.782,0 20.293,-2.758 29.075,-8.43 23.025,-14.868 50.198,-13.156 67.614,4.261 0.647,0.476 3.13,4.169 8.312,4.169 5.252,0 7.722,-3.773 8.47,-4.329 17.226,-17.228 44.99,-19.002 67.518,-4.313 8.92,5.815 18.41,8.643 29.012,8.643 30.852,0 55,-28.109 55,-58 0,-1.763 -0.082,-3.512 -0.244,-5.244 1.732,0.162 3.481,0.244 5.244,0.244 30.327,0 55,-24.673 55,-55 0,-12.005 -3.798,-23.407 -10.979,-32.97 -17.493,-23.326 -18.418,-57.91 -2.2,-82.233 l 11.5,-17.25 c 2.24,-3.358 2.24,-7.735 0,-11.094 l -11.5,-17.251 C 446.604,208.881 447.529,174.297 465.018,150.975 472.202,141.407 476,130.005 476,118 476,87.673 451.327,63 421,63 c -1.763,0 -3.512,0.082 -5.244,0.244 C 415.918,61.512 416,59.763 416,58 416,28.145 391.897,0 361,0 350.218,0 340.707,2.758 331.925,8.43 308.9,23.298 281.727,21.585 264.311,4.169 l -1.24,-1.24 C 261.195,1.054 258.652,0 255.999,0 c -2.652,0 -5.196,1.055 -7.071,2.931 L 247.53,4.329 C 230.303,21.556 202.539,23.33 180.012,8.642 171.092,2.827 161.602,0 151,0 120.148,0 96,28.109 96,58 c 0,1.763 0.082,3.512 0.244,5.244 C 94.512,63.082 92.763,63 91,63 60.673,63 36,87.673 36,118 c 0,12.005 3.798,23.407 10.979,32.97 17.493,23.326 18.418,57.91 2.2,82.233 z m 28.14,-6.155 C 86.587,213.153 85.392,168.857 62.976,138.965 58.412,132.888 56,125.639 56,118 56,98.701 71.701,83 91,83 c 5.272,0 10.34,1.143 15.065,3.396 3.824,1.821 8.381,1.039 11.376,-1.956 2.995,-2.995 3.778,-7.553 1.954,-11.376 C 117.143,68.341 116,63.272 116,58 c 0,-20.243 16.355,-38 35,-38 6.694,0 12.441,1.715 18.088,5.396 28.231,18.406 62.912,17.355 86.935,-1.868 23.929,18.96 58.493,19.947 86.752,1.702 C 348.3,21.662 354.091,20 361,20 c 18.645,0 35,17.757 35,38 0,5.272 -1.143,10.341 -3.396,15.064 -1.824,3.823 -1.041,8.381 1.954,11.376 2.995,2.995 7.552,3.778 11.376,1.956 C 410.66,84.143 415.728,83 421,83 c 19.299,0 35,15.701 35,35 0,7.639 -2.412,14.888 -6.98,20.97 -22.412,29.887 -23.606,74.184 -2.84,105.327 l 7.801,11.703 -7.802,11.702 c -20.767,31.145 -19.572,75.441 2.844,105.333 4.565,6.077 6.977,13.326 6.977,20.965 0,19.299 -15.701,35 -35,35 -5.272,0 -10.34,-1.143 -15.065,-3.396 -3.825,-1.824 -8.382,-1.041 -11.376,1.956 -2.995,2.995 -3.778,7.553 -1.954,11.376 2.252,4.723 3.395,9.792 3.395,15.064 0,20.243 -16.355,38 -35,38 -6.694,0 -12.441,-1.715 -18.088,-5.396 -13.569,-8.847 -28.626,-13.198 -43.276,-13.198 -15.829,0 -31.182,5.083 -43.659,15.066 -23.93,-18.961 -58.494,-19.949 -86.752,-1.702 C 163.7,490.338 157.909,492 151,492 c -18.645,0 -35,-17.757 -35,-38 0,-5.272 1.143,-10.341 3.396,-15.064 1.824,-3.823 1.041,-8.381 -1.954,-11.376 -2.995,-2.997 -7.553,-3.779 -11.376,-1.956 C 101.34,427.857 96.272,429 91,429 71.701,429 56,413.299 56,394 c 0,-7.639 2.412,-14.888 6.98,-20.97 22.412,-29.887 23.606,-74.184 2.84,-105.327 L 58.019,256 Z"
         id="path5"
         inkscape:connector-curvature="0"
         style="fill:#ffffff;fill-opacity:1" />
      <circle
         cx="256"
         cy="409"
         r="10"
         id="circle7"
         style="fill:#ffffff;fill-opacity:1" />
      <path
         d="m 136,419 74.999,0 c 5.523,0 10,-4.478 10,-10 0,-5.522 -4.477,-10 -10,-10 l -64.999,0 0,-286 220,0 0,286 -65,0 c -5.523,0 -10,4.478 -10,10 0,5.522 4.477,10 10,10 l 75,0 c 5.523,0 10,-4.478 10,-10 l 0,-306 c 0,-5.522 -4.477,-10 -10,-10 l -240,0 c -5.523,0 -10,4.478 -10,10 l 0,306 c 0,5.522 4.477,10 10,10 z"
         id="path9"
         inkscape:connector-curvature="0"
         style="fill:#ffffff;fill-opacity:1" />
    </g>
    <g
       id="g4349"
       transform="matrix(0.33281909,0,0,0.33281909,330.68845,698.3257)"
       style="fill:#ffffff">
      <path
         id="path4351"
         d="M 444.957,98.861 471.82,71.998 c 8.773,-8.773 8.772,-23.047 0,-31.82 -8.773,-8.773 -23.047,-8.773 -31.82,0 L 413.137,67.041 C 362.344,23.66 298.462,-0.001 230.936,0 155.86,0.001 85.279,29.237 32.195,82.322 c -2.147,2.147 -2.787,5.377 -1.623,8.18 0.384,0.925 0.94,1.743 1.622,2.425 1.384,1.384 3.285,2.202 5.319,2.198 35.436,-0.071 65.817,11.543 87.859,33.585 22.043,22.042 33.656,52.423 33.586,87.859 -0.004,1.994 0.786,3.908 2.196,5.318 1.41,1.41 3.324,2.2 5.318,2.197 26.792,-0.053 50.691,6.578 70.285,19.34 l -125.029,125.027 -5.303,-5.303 c -2.929,-2.929 -7.678,-2.929 -10.607,0 l -84.853,84.853 c -14.621,14.621 -14.621,38.412 0,53.033 14.621,14.621 38.412,14.621 53.033,0 l 84.853,-84.853 c 2.929,-2.929 2.929,-7.677 0,-10.607 l -5.304,-5.304 125.028,-125.028 c 12.763,19.594 19.393,43.493 19.34,70.284 -0.004,1.994 0.786,3.908 2.196,5.318 1.41,1.41 3.324,2.2 5.318,2.196 35.435,-0.07 65.816,11.543 87.859,33.586 22.043,22.043 33.656,52.423 33.585,87.859 -0.006,3.035 1.817,5.775 4.623,6.941 2.803,1.164 6.033,0.524 8.18,-1.623 53.086,-53.086 82.322,-123.667 82.323,-198.743 0.002,-67.524 -23.66,-131.405 -67.042,-182.199 z m 5.649,-48.075 c 2.924,-2.924 7.682,-2.924 10.607,0 2.925,2.924 2.925,7.682 0,10.607 l -26.302,26.302 c -1.718,-1.81 -3.459,-3.604 -5.231,-5.376 -1.771,-1.772 -3.566,-3.512 -5.376,-5.231 z M 53.392,490.427 c -8.773,8.773 -23.047,8.773 -31.82,0 -8.773,-8.773 -8.773,-23.047 0,-31.82 l 58.336,-58.336 31.82,31.82 z m 68.943,-68.943 -31.82,-31.82 10.606,-10.607 31.82,31.82 z m 10.606,-31.82 -10.607,-10.607 126.503,-126.503 c 1.882,1.639 3.717,3.339 5.492,5.115 1.775,1.775 3.475,3.61 5.115,5.492 z M 264.936,247.062 c -21.161,-21.161 -48.906,-33.822 -80.982,-37.115 28.857,-27.667 59.166,-52.624 88.401,-72.745 3.413,-2.348 4.275,-7.018 1.927,-10.43 -2.351,-3.415 -7.018,-4.275 -10.43,-1.926 -30.038,20.672 -61.148,46.308 -90.716,74.698 -3.219,-32.269 -15.896,-60.178 -37.158,-81.44 C 114.925,97.05 87.352,84.411 55.483,81.039 150.991,-2.846 292.707,-6.649 392.418,69.601 c -6.366,0.143 -13.281,1.017 -20.738,2.631 -23.207,5.024 -51.607,17.46 -82.129,35.964 -3.542,2.147 -4.673,6.76 -2.525,10.302 2.148,3.544 6.76,4.671 10.301,2.525 57.542,-34.886 104.193,-45.653 121.747,-28.099 14.544,14.544 9.999,48.658 -12.47,93.595 -22.108,44.214 -58.947,94.005 -104.553,141.523 -3.292,-32.075 -15.953,-59.818 -37.115,-80.98 z m 128.959,128.959 c -21.262,-21.262 -49.17,-33.939 -81.439,-37.158 46.823,-48.723 84.735,-99.978 107.564,-145.635 14.443,-28.886 21.893,-53.9 22.26,-73.8 76.371,99.719 72.608,241.531 -11.321,337.087 -3.37,-31.868 -16.011,-59.441 -37.064,-80.494 z"
         inkscape:connector-curvature="0"
         style="fill:#ffffff" />
    </g>
    <g
       id="g4493"
       transform="matrix(0.44730836,-0.16156502,0.16156502,0.44730836,202.93937,55.763305)"
       style="fill:#ffffff">
      <g
         id="g4445"
         style="fill:#ffffff">
        <g
           id="g4447"
           style="fill:#ffffff">
          <path
             id="path4449"
             d="m 165.682,378.223 -64,-64 c -3.124,-3.123 -8.188,-3.123 -11.312,0 l -24,24 c -3.123,3.124 -3.123,8.188 0,11.312 l 64,64 c 3.124,3.123 8.188,3.123 11.312,0 l 24,-24 c 3.123,-3.124 3.123,-8.188 0,-11.312 z m -29.656,18.344 -52.688,-52.688 12.688,-12.688 52.688,52.688 -12.688,12.688 z"
             inkscape:connector-curvature="0"
             style="fill:#ffffff" />
        </g>
      </g>
      <g
         id="g4451"
         style="fill:#ffffff">
        <g
           id="g4453"
           style="fill:#ffffff">
          <path
             id="path4455"
             d="m 472.026,67.199 c 10.666,-10.669 10.666,-27.963 0,-38.632 L 451.338,7.879 c -10.814,-10.301 -27.81,-10.301 -38.624,0 L 408.026,12.567 397.682,2.223 386.37,13.535 396.714,23.879 384.026,36.567 373.682,26.223 362.37,37.535 373.034,48.199 c -3.256,4.58 -5.007,10.06 -5.008,15.68 0.03,1.432 0.169,2.861 0.416,4.272 l -106.656,106.656 -6.56,-6.56 c -21.817,-21.822 -57.193,-21.826 -79.015,-0.009 -0.003,0.003 -0.006,0.006 -0.009,0.009 l -22.504,22.504 c -13.731,13.739 -31.049,23.339 -49.976,27.704 l -10.96,2.528 c -64.376,14.85 -104.524,79.076 -89.674,143.452 5.04,21.851 16.121,41.844 31.978,57.7 l 22.704,22.704 c 46.723,46.716 122.47,46.71 169.185,-0.013 15.848,-15.851 26.925,-35.835 31.967,-57.675 l 2.536,-10.968 c 4.359,-18.928 13.957,-36.247 27.696,-49.976 l 22.504,-22.504 c 21.786,-21.837 21.786,-57.187 0,-79.024 l -6.56,-6.56 106.656,-106.656 c 1.411,0.247 2.839,0.386 4.272,0.416 5.617,-0.001 11.095,-1.752 15.672,-5.008 l 10.672,10.664 11.312,-11.312 -10.344,-10.344 12.688,-12.688 10.344,10.344 11.312,-11.312 -10.344,-10.344 4.688,-4.68 z m -171.68,225.192 -22.504,22.504 c -15.868,15.846 -26.957,35.837 -32,57.688 l -2.528,10.968 C 230.449,439.316 174.813,474.094 119.048,461.229 100.12,456.862 82.801,447.263 69.066,433.527 L 46.378,410.823 C 5.908,370.352 5.908,304.736 46.38,264.265 60.114,250.532 77.43,240.934 96.354,236.567 l 10.96,-2.52 c 21.853,-5.043 41.847,-16.132 57.696,-32 l 22.512,-22.504 c 15.57,-15.572 40.815,-15.574 56.388,-0.004 0.001,0.001 0.003,0.003 0.004,0.004 l 6.56,6.56 -37.976,37.976 c -1.48,-0.12 -2.968,-0.2 -4.472,-0.2 -26.51,0 -48,21.49 -48,48 0,26.51 21.49,48 48,48 26.51,0 48,-21.49 48,-48 0,-1.504 -0.08,-2.992 -0.216,-4.472 l 37.976,-37.976 6.56,6.56 c 15.544,15.587 15.544,40.813 0,56.4 z M 230.65,249.247 c 12.499,12.494 12.503,32.756 0.009,45.255 -0.003,0.003 -0.006,0.006 -0.009,0.009 -12.668,12.069 -32.58,12.069 -45.248,0 -12.499,-12.495 -12.503,-32.757 -0.008,-45.256 12.495,-12.499 32.756,-12.503 45.256,-0.008 z m 20.04,0.656 c -4.567,-8.887 -11.801,-16.121 -20.688,-20.688 L 376.026,83.191 396.714,103.879 250.69,249.903 Z M 460.714,55.879 424.026,92.559 c -4.473,4.281 -11.523,4.285 -16,0.008 L 387.338,71.879 c -4.415,-4.42 -4.415,-11.58 0,-16 l 36.688,-36.68 c 4.417,-4.418 11.579,-4.419 15.998,-0.002 10e-4,0.001 0.002,0.002 0.002,0.002 l 20.688,20.68 c 4.415,4.42 4.415,11.58 0,16 z"
             inkscape:connector-curvature="0"
             style="fill:#ffffff" />
        </g>
      </g>
      <g
         id="g4457"
         style="fill:#ffffff" />
      <g
         id="g4459"
         style="fill:#ffffff" />
      <g
         id="g4461"
         style="fill:#ffffff" />
      <g
         id="g4463"
         style="fill:#ffffff" />
      <g
         id="g4465"
         style="fill:#ffffff" />
      <g
         id="g4467"
         style="fill:#ffffff" />
      <g
         id="g4469"
         style="fill:#ffffff" />
      <g
         id="g4471"
         style="fill:#ffffff" />
      <g
         id="g4473"
         style="fill:#ffffff" />
      <g
         id="g4475"
         style="fill:#ffffff" />
      <g
         id="g4477"
         style="fill:#ffffff" />
      <g
         id="g4479"
         style="fill:#ffffff" />
      <g
         id="g4481"
         style="fill:#ffffff" />
      <g
         id="g4483"
         style="fill:#ffffff" />
      <g
         id="g4485"
         style="fill:#ffffff" />
    </g>
  </g>
</svg>
