<?xml version="1.0"?>
<svg xmlns="http://www.w3.org/2000/svg" id="Outline" viewBox="0 0 512 512" width="512" height="512"><path d="M98.878,126.146C109.263,134.8,120,143.747,120,152c0,11.254-4.237,14.543-20.437,25.343a8,8,0,1,0,8.875,13.313C125.035,179.591,136,172.281,136,152c0-15.747-13.664-27.134-26.878-38.146C98.737,105.2,88,96.253,88,88c0-11.254,4.237-14.543,20.438-25.344a8,8,0,0,0-8.876-13.312C82.965,60.409,72,67.719,72,88,72,103.747,85.664,115.134,98.878,126.146Z"/><path d="M186.878,94.146C197.263,102.8,208,111.747,208,120c0,11.254-4.237,14.543-20.437,25.343a8,8,0,1,0,8.875,13.313C213.035,147.591,224,140.281,224,120c0-15.747-13.664-27.134-26.878-38.146C186.737,73.2,176,64.253,176,56c0-7.758,6.25-11.852,18.229-19,3.295-1.968,6.7-4,10.209-6.34a8,8,0,0,0-8.876-13.312c-3.174,2.115-6.408,4.047-9.536,5.915C173.23,30.9,160,38.8,160,56,160,71.747,173.664,83.134,186.878,94.146Z"/><path d="M282.878,126.146C293.263,134.8,304,143.747,304,152c0,11.254-4.237,14.543-20.437,25.343a8,8,0,1,0,8.875,13.313C309.035,179.591,320,172.281,320,152c0-15.747-13.664-27.134-26.878-38.146C282.737,105.2,272,96.253,272,88c0-11.254,4.237-14.543,20.438-25.344a8,8,0,0,0-8.876-13.312C266.965,60.409,256,67.719,256,88,256,103.747,269.664,115.134,282.878,126.146Z"/><path d="M480,448H308.337a186.942,186.942,0,0,0,32.83-32H384A104.118,104.118,0,0,0,488,312a88.1,88.1,0,0,0-88-88H48a8,8,0,0,0-8,8v32c0,43.357,10.41,85.17,30.1,120.919,14.139,25.666,32.382,47.069,53.582,63.081H32a8,8,0,0,0-8,8,40.045,40.045,0,0,0,40,40H448a40.045,40.045,0,0,0,40-40A8,8,0,0,0,480,448ZM392,240h8a72.081,72.081,0,0,1,72,72,88.1,88.1,0,0,1-88,88H352.87q5.1-7.728,9.594-16h24.445A69.169,69.169,0,0,0,456,314.909,58.976,58.976,0,0,0,397.091,256H392Zm-.12,32h5.211A42.958,42.958,0,0,1,440,314.909,53.15,53.15,0,0,1,386.909,368h-16.55A254.53,254.53,0,0,0,391.88,272ZM84.118,377.2C65.723,343.808,56,304.665,56,264V240H376v24c0,40.5-9.65,79.509-27.907,112.814-17.336,31.627-41.291,56.2-69.355,71.186H153.252C125.311,433.077,101.446,408.654,84.118,377.2ZM448,480H64a24.042,24.042,0,0,1-22.629-16H470.629A24.042,24.042,0,0,1,448,480Z"/></svg>
