<svg height="512pt" viewBox="0 -10 512.16367 512" width="512pt" xmlns="http://www.w3.org/2000/svg"><path d="m11.976562 194.03125c9.878907 4.65625 21.320313 4.648438 31.191407-.015625 3.8125 1.339844 6.933593 4.136719 8.679687 7.78125 1.65625 4.785156-.941406 12.101563-7.308594 20.597656-27.628906 36.839844-51.390624 71.519531-38.816406 91.007813 3.496094 5.066406 8.878906 8.523437 14.945313 9.59375 12.300781 52.964844 52.75 94.863281 105.25 109.015625 30.902343 9.378906 62.832031 14.9375 95.082031 16.554687 16.878906.34375 33.59375 3.347656 49.53125 8.910156 15.792969 5.296876 31.113281 11.902344 45.8125 19.746094 15.265625 9.441406 32.804688 14.566406 50.753906 14.824219 32.132813-.945313 61.550782-18.25 77.988282-45.878906 4.929687-8.023438 10.042968-19.082031 6.445312-26.199219-2.769531-5.242188-7.714844-8.988281-13.511719-10.238281 1-12.269531 1.253907-22.523438 1.265625-23.039063.105469-4.710937-3.625-8.617187-8.335937-8.726562-2.277344-.113282-4.503907.714844-6.152344 2.289062-1.652344 1.578125-2.582031 3.761719-2.570313 6.042969 0 .125-.25 9.910156-1.179687 21.511719l-.714844-.039063c-3.328125-.179687-7.019531-.421875-10.898437-.738281 1.820312-16.523438 2.265625-33.394531 2.289062-34.226562.117188-4.710938-3.601562-8.625-8.3125-8.746094-2.28125-.121094-4.507812.699218-6.164062 2.273437-1.652344 1.570313-2.585938 3.753907-2.582032 6.039063-.007812.195312-.445312 16.554687-2.136718 32.265625-4.097656-.75-8.210938-1.675781-12.289063-2.761719 2.523438-13.519531 3.835938-27.234375 3.925781-40.984375 0-4.714844-3.820312-8.535156-8.535156-8.535156-4.710937 0-8.53125 3.820312-8.53125 8.535156-.109375 11.992187-1.183594 23.957031-3.21875 35.773437-3.890625-1.472656-7.847656-3.132812-11.867187-4.980468 1.507812-15.3125 1.921875-29.867188 1.941406-30.5625.125-4.707032-3.585937-8.632813-8.296875-8.761719-2.277344-.121094-4.507812.699219-6.164062 2.265625-1.65625 1.570312-2.597657 3.75-2.601563 6.03125 0 .140625-.292969 10.460938-1.261719 22.574219-4.167968-2.375-8.332031-4.921875-12.492187-7.636719 1.003906-12.296875 1.28125-22.53125 1.289062-23.015625.0625-2.261719-.78125-4.457031-2.339843-6.097656-1.558594-1.640625-3.707032-2.597657-5.96875-2.652344-2.273438-.097656-4.488282.730469-6.136719 2.296875-1.648438 1.566406-2.59375 3.734375-2.613281 6.011719 0 .078125-.136719 4.957031-.535157 11.859375-4.570312-3.535156-9.179687-7.359375-13.832031-11.472656.921875-12.03125 1.207031-21.914063 1.21875-22.375.128906-4.710938-3.582031-8.632813-8.292969-8.765626-2.289062-.164062-4.542969.640626-6.207031 2.214844-1.667969 1.578125-2.597656 3.78125-2.558594 6.078125 0 .0625-.09375 3.199219-.328125 8.007813-2.980469-2.839844-5.941406-5.679688-8.828125-8.46875-32.800781-31.675782-64.070312-61.726563-125.597656-63.917969 10.546875-6.644531 22.75-9.082031 43.417969-3.90625 30.085937 7.300781 61.367187 8.214844 91.828125 2.691406 2.132812-.269531 4.332031-.542969 6.527344-.816406-.507813 1.066406-1.003907 2.09375-1.492188 3.046875-1.378906 2.71875-1.207031 5.964844.457031 8.523438 1.664063 2.554687 4.5625 4.027343 7.609375 3.863281 3.042969-.160157 5.769532-1.9375 7.152344-4.652344 1.816406-3.578125 3.730469-7.765625 5.886719-12.886719 5.054687-.4375 10.363281-.773437 15.933593-1-.953124 2.121094-1.921874 4.214844-2.90625 6.15625-1.433593 2.726563-1.289062 6.011719.378907 8.597656 1.667969 2.585938 4.601562 4.074219 7.671875 3.894532 3.074218-.179688 5.808594-2.003906 7.164062-4.765625 2.273438-4.484375 4.460938-9.5 6.371094-14.105469 3.375.066406 6.917969.21875 10.511719.402344-2.363281 5.703125-4.539063 10.589844-6.523438 14.558594-2.109375 4.214843-.398437 9.339843 3.816407 11.449218 4.214843 2.105469 9.339843.398438 11.449218-3.816406 2.753906-5.507812 5.777344-12.4375 9.152344-20.886719 5.289062.511719 10.371094.75 15.34375.851563-1.808594 4.328125-3.699219 8.589844-5.613281 12.375-1.375 2.71875-1.195313 5.96875.472656 8.519531 1.671875 2.554687 4.574219 4.019531 7.617187 3.851563 3.046876-.167969 5.769532-1.949219 7.144532-4.671876 3.207031-6.34375 6.273437-13.6875 9.015625-20.613281 5.792969-.464843 11.324219-1.179687 16.601562-2.113281-2.066406 5.042969-4.386719 10.363281-6.734375 15.058594-2.109375 4.21875-.398437 9.34375 3.816406 11.453125 4.214844 2.105469 9.34375.398437 11.449219-3.816407 4.523438-9.046874 8.875-20.019531 11.710938-27.558593 5.136719-1.578125 10.011719-3.296875 14.480469-5.148438-2.238282 5.53125-4.773438 11.402344-7.332032 16.554688-1.382812 2.734375-1.195312 6 .492188 8.558593 1.6875 2.554688 4.617187 4.011719 7.675781 3.8125 3.054687-.199218 5.773437-2.019531 7.117187-4.773437 5.539063-11.671875 10.457032-23.625 14.730469-35.816406 3.691407-2.304688 6.898438-4.511719 9.621094-6.542969-1.027344 6.113281-2.875 12.058594-5.496094 17.679688-2.105469 4.214843-.398437 9.339843 3.816407 11.449218 4.214843 2.109375 9.34375.398438 11.449218-3.816406 5.90625-13.835938 9.089844-28.675781 9.375-43.71875 4.890625-5.539062 7.898438-12.484375 8.597656-19.839844 0-83.691406-25.140624-132.414062-74.730468-144.808594-32.808594-8.191406-62.042969-5.082031-90.335938-2.070312-32.222656 3.429688-65.527344 6.976562-105.300781-6.28125-21.875-7.363281-43.253906-16.128906-64-26.234375-26.757813-12.621094-42.925781-20.226563-62.902344-6.902344-13.675781 11.097657-25.15625 24.652344-33.847656 39.972657-10.476563 15.800781-21.304687 32.140624-32.382813 35.832031-28.105468 9.363281-48.5 45.070312-48.5 84.894531-1.101562 10.242188 3.414063 20.28125 11.8125 26.25zm266.445313 168.398438c9.652344 8.839843 19.917969 16.984374 30.71875 24.375.472656.363281 1.058594.769531 2.023437 1.410156 8.632813 5.792968 17.617188 11.050781 26.894532 15.742187.148437.101563.3125.179688.46875.269531l.21875.128907c.121094.066406.230468.144531.355468.203125 9.109376 4.527344 18.542969 8.363281 28.222657 11.484375l.066406.015625h.019531c9.828125 3.148437 19.917969 5.425781 30.148438 6.804687.324218.085938.65625.152344.992187.203125l.0625.019532.074219.007812.097656.019531c7.945313 1.007813 14.980469 1.386719 20.636719 1.6875 3.160156.171875 6.019531.316407 8.613281.5625 2.558594.0625 5.089844.582031 7.464844 1.542969-2.472656 10.492188-26.953125 48.074219-68.402344 48.074219-15.246094-.253907-30.121094-4.738281-42.96875-12.945313-15.460937-8.246094-31.582031-15.183594-48.199218-20.75-17.375-6.050781-35.59375-9.34375-53.992188-9.753906-31.046875-1.574219-61.785156-6.941406-91.53125-15.984375-44.832031-12.015625-79.84375-47.042969-91.835938-91.882813 4.925782-.539062 9.816407-1.367187 14.644532-2.488281 10.628906-2.320312 20.9375-5.914062 30.707031-10.703125 18.589844 19.910156 41.585937 35.1875 67.140625 44.601563 17.683594 6.046875 35.910156 10.375 54.421875 12.925781 16.320313 2.039062 32.300781 6.242188 47.507813 12.503906 4.378906 1.753906 9.34375-.375 11.097656-4.753906 1.75-4.375-.378906-9.34375-4.753906-11.09375-16.417969-6.746094-33.65625-11.289062-51.261719-13.523438-17.558594-2.394531-34.84375-6.496093-51.605469-12.242187-21.636719-7.980469-41.210938-20.714844-57.277344-37.257813 8.132813-5.691406 15.78125-12.039062 22.871094-18.980468 68.621094-4.25 99.03125 24.992187 134.085938 58.839844 7.105468 6.867187 14.457031 13.96875 22.273437 20.9375zm-224.359375-263.355469c16.65625-5.542969 28.582031-23.539063 41.210938-42.589844 7.558593-13.347656 17.40625-25.265625 29.089843-35.203125 11.445313-7.640625 19.617188-4.375 46.160157 8.136719 21.363281 10.386719 43.367187 19.402343 65.875 26.992187 43.304687 14.429688 78.476562 10.683594 112.507812 7.058594 28.039062-2.992188 54.519531-5.8125 84.390625 1.65625 41.007813 10.25 61.800781 53.40625 61.800781 128.253906-2.65625 7.539063-7.496094 14.117188-13.90625 18.894532-10.195312 9.21875-48.523437 38.800781-113.246094 32.347656-12.949218-1.292969-24.457031-1.761719-35.070312-1.773438-.207031-.003906-.40625-.015625-.609375 0-19 .167969-37.964844 1.609375-56.773437 4.3125-28.355469 5.253906-57.5 4.460938-85.527344-2.320312-41.9375-10.476563-59.269532 6.035156-77.625 23.523437-16.753906 18.195313-38.679688 30.816407-62.832032 36.15625-24.839843 5.515625-29.050781.25-29.449218-.367187-7.167969-11.113282 26.921875-56.578125 38.125-71.511719 10.234375-13.640625 13.5-25.953125 9.722656-36.605469-4.214844-9.71875-12.722656-16.917968-23.003906-19.464844-1.96875-.484374-4.042969-.261718-5.863282.632813-5.496093 3.121094-12 3.949219-18.105468 2.304687-3.222656-2.011718-3.703125-8.210937-3.703125-11.726562 0-32.171875 15.832031-61.707031 36.832031-68.707031zm0 0"/><path d="m461.21875 152.785156c1.195312 4.511719 5.792969 7.222656 10.320312 6.089844 4.527344-1.132812 7.304688-5.691406 6.234376-10.230469-4.488282-20.441406-14.066407-39.414062-27.84375-55.164062-3.339844-3.253907-8.671876-3.222657-11.976563.066406s-3.355469 8.621094-.113281 11.976563c11.511718 13.625 19.535156 29.84375 23.378906 47.261718zm0 0"/><path d="m401.230469 176.3125c6.652343.386719 13.226562-1.621094 18.527343-5.660156 4.5-3.855469 7.007813-9.535156 6.828126-15.453125.003906-16.152344-17.078126-38.617188-33.890626-38.617188-14.492187 0-23.464843 15.503907-23.464843 29.863281-.195313 8.363282 3.1875 16.40625 9.300781 22.113282 6.113281 5.707031 14.371094 8.527344 22.699219 7.753906zm-8.535157-42.664062c9.042969 3.679687 15.449219 11.886718 16.828126 21.550781 0 1.757812-.554688 2.226562-.792969 2.425781-2.253907 1.355469-4.890625 1.925781-7.5 1.621094-12.34375 0-14.933594-6.960938-14.933594-12.800782 0-6.941406 3.925781-12.796874 6.398437-12.796874zm0 0"/><path d="m256.164062 150.714844c-1.378906 19.078125 10.789063 36.519531 29.175782 41.8125 2.332031.558594 4.726562.847656 7.128906.851562 9.429688.285156 18.1875-4.863281 22.527344-13.242187 5.015625-10.042969 23.644531-4.308594 23.800781-4.257813 2.601563.867188 5.464844.429688 7.6875-1.175781 2.226563-1.601563 3.546875-4.179687 3.546875-6.921875 0-45.941406-44.125-76.800781-85.335938-76.800781-5.0625-.363281-10.003906 1.652343-13.371093 5.449219-4.550781 5.933593-2.609375 13.179687-.152344 22.359374 3.121094 10.363282 4.800781 21.105469 4.992187 31.925782zm75.777344 6.492187c-12.898437-2.285156-25.828125 3.851563-32.214844 15.289063-2.273437 3.433594-6.609374 4.851562-10.46875 3.425781-7.394531-1.742187-16.027343-9.394531-16.027343-25.207031-.164063-12.3125-2.039063-24.546875-5.570313-36.34375-.554687-2.066406-1.1875-4.433594-1.597656-6.308594 25.757812.582031 59.605469 17.5625 65.878906 49.144531zm0 0"/><path d="m177.6875 142.015625c3.398438.558594 6.71875 1.535156 9.878906 2.898437-.84375 1.371094-2.21875 3.191407-3.226562 4.535157-4.933594 6.550781-15.207032 20.171875-2.476563 32.898437 15.195313 15.203125 29.121094 23.035156 40.265625 23.035156 5.4375.082032 10.671875-2.074218 14.46875-5.96875 8.136719-8.136718 2.9375-19.75-1.65625-30-3.761718-8.398437-8.019531-17.921874-5.277344-23.414062 6.121094-14.945312 4.574219-31.933594-4.152343-45.527344-6.125-9.917968-21.382813-26.558594-54.679688-26.558594-12.820312 0-25.003906 13.679688-26.605469 29.871094-1.480468 14.949219 6.53125 32.847656 33.460938 38.230469zm-6.855469-51.035156c23.765625 0 34.960938 10.042969 40.164063 18.460937 5.621094 8.570313 6.878906 19.285156 3.402344 28.921875-6.359376 12.722657-.082032 26.753907 4.96875 38.027344 1.820312 3.675781 3.289062 7.519531 4.382812 11.476563-2.71875.464843-5.515625.023437-7.957031-1.261719-8.195313-4.105469-15.601563-9.632813-21.863281-16.324219-1.535157-1.535156-2.238282-2.238281 4.039062-10.558594 5.710938-5.300781 8.179688-13.238281 6.480469-20.84375-3.246094-8.507812-13.65625-11.648437-23.410157-13.597656-13.78125-2.757812-20.820312-9.792969-19.828124-19.8125.839843-8.515625 6.746093-14.488281 9.621093-14.488281zm0 0"/><path d="m76.964844 142.179688c8.386718 0 17.066406 25.34375 17.066406 34.132812 0 1.75-.722656 6.472656-1.355469 10.632812-2.824219 18.535157-4.140625 30.246094 1.335938 36.628907 2.128906 2.511719 5.257812 3.957031 8.550781 3.941406 11.460938-1.695313 21.671875-8.160156 28.105469-17.792969 7.707031-10.375 9.800781-23.886718 5.589843-36.109375-2.875-11.839843-4.332031-23.976562-4.339843-36.160156-1.167969-24.035156-2.269531-46.734375-17.003907-54.101563-4.648437-2.328124-14.367187-4.476562-27.160156 7.148438-9.945312 9.046875-26.019531 32.328125-21.285156 44.574219 1.644531 4.347656 5.847656 7.195312 10.496094 7.105469zm26.21875-42.113282c2.28125-1.421875 3.738281-1.632812 4.097656-1.449218 5.800781 2.902343 6.878906 25.023437 7.59375 39.667968.015625 13.742188 1.761719 27.425782 5.195312 40.730469 2.371094 6.605469 1.417969 13.945313-2.558593 19.726563-2.644531 3.945312-6.128907 7.253906-10.207031 9.6875.230468-5.695313 1.519531-14.144532 2.246093-18.90625.796875-4.367188 1.3125-8.777344 1.546875-13.210938 0-8.191406-7.3125-43.632812-27.5-50.160156 4.054688-10.304688 10.824219-19.316406 19.585938-26.085938zm0 0"/></svg>