<svg id="Layer_3" enable-background="new 0 0 64 64" height="512" viewBox="0 0 64 64" width="512" xmlns="http://www.w3.org/2000/svg"><g><path d="m63 4.266v-.223c0-1.678-1.365-3.043-3.043-3.043-.906 0-1.759.399-2.338 1.095l-25.619 30.743-25.619-30.742c-.579-.697-1.432-1.096-2.338-1.096-1.678 0-3.043 1.365-3.043 3.043v.223c0 .705.247 1.393.695 1.936l26.112 31.668-13.976 16.77c-.19.229-.47.36-.768.36h-8.063c-2.206 0-4 1.794-4 4s1.794 4 4 4h8.114c1.498 0 2.904-.663 3.857-1.819l15.029-18.226 15.028 18.226c.953 1.156 2.36 1.819 3.858 1.819h8.114c2.206 0 4-1.794 4-4s-1.794-4-4-4h-8.063c-.298 0-.577-.131-.768-.36l-13.976-16.771 26.112-31.667c.448-.543.695-1.231.695-1.936zm-40.745 43.39 26.905-32.286 1.849 1.387-26.74 32.43zm.741 3.076-1.409 1.709-2.042-1.532 1.429-1.715zm-19.996-46.466v-.223c0-.575.468-1.043 1.043-1.043.311 0 .603.137.801.375l8.714 10.457-1.841 1.381-8.479-10.283c-.153-.187-.238-.422-.238-.664zm9.99 12.491 1.849-1.387 15.859 19.03-1.588 1.906zm-9.99 42.243c0-1.103.897-2 2-2h.596l3.993 4h-4.589c-1.103 0-2-.897-2-2zm12.429.909c-.573.693-1.415 1.091-2.315 1.091h-.699l-3.993-4h4.641c.893 0 1.733-.394 2.305-1.08l2.895-3.474 2.05 1.538zm25.576-9.177 2.022-1.538 1.429 1.715-2.042 1.532zm19.995 8.268c0 1.103-.897 2-2 2h-4.589l3.993-4h.596c1.103 0 2 .897 2 2zm-10.063-2h4.641l-3.993 4h-.699c-.899 0-1.742-.398-2.314-1.091l-4.885-5.924 2.05-1.538 2.895 3.474c.571.685 1.412 1.079 2.305 1.079zm-9.192-9.344-2.013 1.532-6.435-7.804 1.602-1.943zm19.255-43.39c0 .242-.085.477-.238.664l-8.479 10.283-1.841-1.381 8.714-10.457c.198-.238.49-.375.801-.375.575 0 1.043.468 1.043 1.043z"/><path d="m32 53c-3.484 0-7 .928-7 3v4c0 2.072 3.516 3 7 3s7-.928 7-3v-4c0-2.072-3.516-3-7-3zm0 2c2.764 0 4.439.63 4.909 1-.47.37-2.146 1-4.909 1s-4.439-.63-4.909-1c.47-.37 2.145-1 4.909-1zm0 6c-2.989 0-4.706-.737-5-1.085v-1.718c1.334.544 3.169.803 5 .803s3.666-.259 5-.803v1.718c-.294.348-2.011 1.085-5 1.085z"/></g></svg>