<svg height="408pt" viewBox="-12 0 408 408.00016" width="408pt" xmlns="http://www.w3.org/2000/svg"><path d="m327.996094 184h-264c-4.417969 0-8 3.582031-8 8v88c.050781 23.210938 7.863281 45.738281 22.191406 64h-70.191406c-2.351563 0-4.582032 1.035156-6.101563 2.828125s-2.171875 4.164063-1.785156 6.484375l3.542969 21.253906c3.160156 19.320313 19.878906 33.488282 39.457031 33.433594h265.773437c19.578126.054688 36.300782-14.113281 39.457032-33.433594l3.542968-21.253906c.386719-2.320312-.265624-4.691406-1.785156-6.484375-1.519531-1.792969-3.75-2.828125-6.101562-2.828125h-70.175782c5.140626-6.503906 9.476563-13.601562 12.921876-21.144531l57.949218-16.695313c23.433594-7.230468 39.386719-28.925781 39.304688-53.449218v-12.710938c-.035156-30.914062-25.085938-55.964844-56-56zm-32 48h25.359375c7.292969.082031 13.421875 5.503906 14.386719 12.734375.964843 7.230469-3.523438 14.070313-10.539063 16.066406l-29.207031 8zm36.566406 139.945312c-1.902344 11.589844-11.933594 20.085938-23.679688 20.054688h-265.773437c-11.746094.03125-21.777344-8.464844-23.679687-20.054688l-1.984376-11.945312h317.101563zm-232.832031-27.945312c-17.65625-16.605469-27.691407-39.757812-27.734375-64v-80h208v80c-.039063 24.246094-10.085938 47.402344-27.757813 64zm268.265625-91.289062c.074218 17.453124-11.238282 32.914062-27.894532 38.121093l-47.121093 13.601563c1.492187-6.21875 2.402343-12.558594 2.71875-18.945313l33.722656-9.199219c14.84375-4.03125 24.40625-18.429687 22.367187-33.675781-2.039062-15.246093-15.050781-26.625-30.433593-26.613281h-25.359375v-16h32c22.082031.027344 39.972656 17.917969 40 40zm0 0"/><path d="m159.996094 160c0 4.417969 3.582031 8 8 8 4.417968 0 8-3.582031 8-8-.183594-7.582031 2.199218-15.003906 6.761718-21.0625 6.203126-8.613281 9.449219-19.003906 9.238282-29.617188.207031-10.605468-3.035156-20.992187-9.230469-29.601562-4.570313-6.0625-6.957031-13.488281-6.769531-21.078125-.183594-7.578125 2.199218-14.996094 6.761718-21.046875 6.207032-8.601562 9.449219-18.988281 9.238282-29.59375 0-4.417969-3.582032-8-8-8-4.417969 0-8 3.582031-8 8 .1875 7.578125-2.195313 14.996094-6.757813 21.046875-6.207031 8.601563-9.453125 18.988281-9.242187 29.59375-.207032 10.605469 3.039062 20.992187 9.242187 29.597656 4.5625 6.066407 6.945313 13.496094 6.757813 21.082031.183594 7.585938-2.199219 15.011719-6.769532 21.070313-6.199218 8.613281-9.4375 19-9.230468 29.609375zm0 0"/><path d="m111.613281 36.238281c2.339844-3.753906 1.195313-8.695312-2.5625-11.039062-3.753906-2.339844-8.695312-1.195313-11.039062 2.5625l-.800781 1.292969c-6.195313 8.605468-9.425782 18.984374-9.214844 29.585937-.207032 10.605469 3.039062 20.992187 9.242187 29.597656 4.5625 6.066407 6.945313 13.496094 6.757813 21.082031.179687 7.585938-2.203125 15.015626-6.769532 21.078126l-.855468 1.363281c-2.339844 3.753906-1.195313 8.695312 2.5625 11.039062 3.753906 2.339844 8.695312 1.195313 11.039062-2.5625l.800782-1.300781c6.199218-8.613281 9.433593-19.007812 9.222656-29.617188.207031-10.605468-3.035156-20.992187-9.230469-29.601562-4.570313-6.0625-6.957031-13.488281-6.769531-21.078125-.183594-7.574219 2.199218-14.988281 6.761718-21.039063zm0 0"/><path d="m255.613281 36.238281c2.339844-3.753906 1.195313-8.695312-2.5625-11.039062-3.753906-2.339844-8.695312-1.195313-11.039062 2.5625l-.800781 1.292969c-6.195313 8.605468-9.425782 18.984374-9.214844 29.585937-.207032 10.605469 3.039062 20.992187 9.242187 29.597656 4.5625 6.066407 6.945313 13.496094 6.757813 21.082031.179687 7.585938-2.203125 15.015626-6.769532 21.078126l-.855468 1.363281c-2.339844 3.753906-1.195313 8.695312 2.5625 11.039062 3.753906 2.339844 8.695312 1.195313 11.039062-2.5625l.800782-1.300781c6.199218-8.613281 9.433593-19.007812 9.222656-29.617188.207031-10.605468-3.035156-20.992187-9.230469-29.601562-4.570313-6.0625-6.957031-13.488281-6.769531-21.078125-.183594-7.574219 2.199218-14.988281 6.761718-21.039063zm0 0"/></svg>