<?xml version='1.0' encoding='iso-8859-1'?>
<!DOCTYPE svg PUBLIC '-//W3C//DTD SVG 1.1//EN' 'http://www.w3.org/Graphics/SVG/1.1/DTD/svg11.dtd'>
<svg version="1.1" xmlns="http://www.w3.org/2000/svg" viewBox="0 0 456.94 456.94" xmlns:xlink="http://www.w3.org/1999/xlink" enable-background="new 0 0 456.94 456.94">
  <g>
    <path d="m114.973,154.209c1.97,0 3.9-0.8 5.3-2.2s2.2-3.33 2.2-5.3c0-1.98-0.8-3.91-2.2-5.31-1.4-1.39-3.33-2.19-5.3-2.19-1.98,0-3.91,0.8-5.31,2.19-1.39,1.4-2.19,3.33-2.19,5.31 0,1.97 0.8,3.9 2.19,5.3 1.4,1.4 3.33,2.2 5.31,2.2z"/>
    <path d="m190.633,154.209c1.98,0 3.91-0.8 5.31-2.2 1.39-1.4 2.19-3.33 2.19-5.3 0-1.98-0.8-3.91-2.19-5.31-1.4-1.39-3.33-2.19-5.31-2.19-1.97,0-3.9,0.8-5.3,2.19-1.4,1.4-2.2,3.33-2.2,5.31 0,1.97 0.8,3.9 2.2,5.3s3.33,2.2 5.3,2.2z"/>
    <path d="m341.973,154.209c1.97,0 3.9-0.8 5.3-2.2s2.2-3.33 2.2-5.3c0-1.98-0.8-3.91-2.2-5.31-1.4-1.39-3.33-2.19-5.3-2.19-1.98,0-3.91,0.8-5.31,2.19-1.39,1.4-2.19,3.33-2.19,5.31 0,1.97 0.8,3.9 2.19,5.3 1.4,1.4 3.33,2.2 5.31,2.2z"/>
    <path d="m266.303,154.209c1.97,0 3.91-0.8 5.3-2.2 1.4-1.4 2.2-3.33 2.2-5.3 0-1.98-0.8-3.91-2.2-5.31-1.39-1.39-3.33-2.19-5.3-2.19-1.97,0-3.91,0.8-5.3,2.19-1.4,1.4-2.2,3.33-2.2,5.31 0,1.97 0.8,3.9 2.2,5.3 1.39,1.4 3.33,2.2 5.3,2.2z"/>
    <path d="m114.973,213.209c1.97,0 3.9-0.8 5.3-2.2s2.2-3.33 2.2-5.3c0-1.98-0.8-3.91-2.2-5.31-1.4-1.39-3.33-2.19-5.3-2.19-1.98,0-3.91,0.8-5.31,2.19-1.39,1.4-2.19,3.33-2.19,5.31 0,1.97 0.8,3.9 2.19,5.3 1.4,1.4 3.33,2.2 5.31,2.2z"/>
    <path d="m190.633,213.209c1.98,0 3.91-0.8 5.31-2.2 1.39-1.4 2.19-3.33 2.19-5.3 0-1.98-0.8-3.91-2.19-5.31-1.4-1.39-3.33-2.19-5.31-2.19-1.97,0-3.9,0.8-5.3,2.19-1.4,1.4-2.2,3.33-2.2,5.31 0,1.97 0.8,3.9 2.2,5.3s3.33,2.2 5.3,2.2z"/>
    <path d="m341.973,213.209c1.97,0 3.9-0.8 5.3-2.2s2.2-3.33 2.2-5.3c0-1.98-0.8-3.91-2.2-5.31-1.4-1.39-3.33-2.19-5.3-2.19-1.98,0-3.91,0.8-5.31,2.19-1.39,1.4-2.19,3.33-2.19,5.31 0,1.97 0.8,3.9 2.19,5.3 1.4,1.4 3.33,2.2 5.31,2.2z"/>
    <path d="m266.303,213.209c1.97,0 3.91-0.8 5.3-2.2 1.4-1.4 2.2-3.33 2.2-5.3 0-1.98-0.8-3.91-2.2-5.31-1.39-1.39-3.33-2.19-5.3-2.19-1.97,0-3.91,0.8-5.3,2.19-1.4,1.4-2.2,3.33-2.2,5.31 0,1.97 0.8,3.9 2.2,5.3 1.39,1.4 3.33,2.2 5.3,2.2z"/>
    <path d="m420.894,199.736v-56.35c0-31.97-26.009-57.979-57.979-57.979h-268.89c-31.97,0-57.979,26.009-57.979,57.979v56.35c-20.179,1.826-36.046,18.829-36.046,39.476 0,13.165 6.466,25.291 17.145,32.643v50.354c0,11.881 8.256,21.863 19.331,24.527v17.297c0,4.142 3.358,7.5 7.5,7.5h37.148c4.142,0 7.5-3.358 7.5-7.5v-16.593h279.693v16.594c0,4.142 3.358,7.5 7.5,7.5h37.148c4.142,0 7.5-3.358 7.5-7.5v-17.297c11.075-2.665 19.331-12.647 19.331-24.527v-50.354c10.679-7.352 17.145-19.479 17.145-32.643-0.001-20.648-15.868-37.651-36.047-39.477zm-326.869-99.33h268.889c23.699,0 42.979,19.28 42.979,42.979v57.857c-16.322,4.909-28.249,20.069-28.249,37.969v12.124h-298.35v-12.124c1.42109e-14-17.9-11.927-33.06-28.249-37.969v-57.857c0.001-23.699 19.281-42.979 42.98-42.979zm281.791,232.034h-294.692-1.829v-12.545h298.351v12.545h-1.83zm1.83-27.545h-298.352v-38.56h298.351v38.56zm-345.5,17.314v-54.229c0.008-0.178 0.009-0.357 0.004-0.537-0.073-2.706-1.6-5.163-3.993-6.428-8.115-4.287-13.156-12.642-13.156-21.803 0-13.59 11.057-24.647 24.647-24.647 13.59,0 24.647,11.057 24.647,24.647v93.229h-20.318-1.6c-5.642-0.001-10.231-4.59-10.231-10.232zm41.479,34.325h-22.148v-9.094h20.319 1.829v9.094zm331.84,0h-22.148v-9.094h1.829 20.319v9.094zm23.32-95.518c-2.394,1.265-3.916,3.724-3.99,6.43-0.004,0.146-0.003,0.292 0.001,0.438v54.325c0,5.642-4.589,10.231-10.231,10.231h-1.6-20.319v-93.229c0-13.59 11.057-24.647 24.647-24.647 13.591,0 24.647,11.057 24.647,24.647 0.001,9.162-5.04,17.517-13.155,21.805z"/>
  </g>
</svg>
