<svg id="Capa_1" enable-background="new 0 0 512 512" height="512" viewBox="0 0 512 512" width="512" xmlns="http://www.w3.org/2000/svg"><g><path d="m444.957 98.861 26.863-26.863c8.773-8.773 8.772-23.047 0-31.82-8.773-8.773-23.047-8.773-31.82 0l-26.863 26.863c-50.793-43.381-114.675-67.042-182.201-67.041-75.076.001-145.657 29.237-198.741 82.322-2.147 2.147-2.787 5.377-1.623 8.18.384.925.94 1.743 1.622 2.425 1.384 1.384 3.285 2.202 5.319 2.198 35.436-.071 65.817 11.543 87.859 33.585 22.043 22.042 33.656 52.423 33.586 87.859-.004 1.994.786 3.908 2.196 5.318s3.324 2.2 5.318 2.197c26.792-.053 50.691 6.578 70.285 19.34l-125.029 125.027-5.303-5.303c-2.929-2.929-7.678-2.929-10.607 0l-84.853 84.853c-14.621 14.621-14.621 38.412 0 53.033s38.412 14.621 53.033 0l84.853-84.853c2.929-2.929 2.929-7.677 0-10.607l-5.304-5.304 125.028-125.028c12.763 19.594 19.393 43.493 19.34 70.284-.004 1.994.786 3.908 2.196 5.318s3.324 2.2 5.318 2.196c35.435-.07 65.816 11.543 87.859 33.586s33.656 52.423 33.585 87.859c-.006 3.035 1.817 5.775 4.623 6.941 2.803 1.164 6.033.524 8.18-1.623 53.086-53.086 82.322-123.667 82.323-198.743.002-67.524-23.66-131.405-67.042-182.199zm5.649-48.075c2.924-2.924 7.682-2.924 10.607 0s2.925 7.682 0 10.607l-26.302 26.302c-1.718-1.81-3.459-3.604-5.231-5.376-1.771-1.772-3.566-3.512-5.376-5.231zm-397.214 439.641c-8.773 8.773-23.047 8.773-31.82 0s-8.773-23.047 0-31.82l58.336-58.336 31.82 31.82zm68.943-68.943-31.82-31.82 10.606-10.607 31.82 31.82zm10.606-31.82-10.607-10.607 126.503-126.503c1.882 1.639 3.717 3.339 5.492 5.115 1.775 1.775 3.475 3.61 5.115 5.492zm131.995-142.602c-21.161-21.161-48.906-33.822-80.982-37.115 28.857-27.667 59.166-52.624 88.401-72.745 3.413-2.348 4.275-7.018 1.927-10.43-2.351-3.415-7.018-4.275-10.43-1.926-30.038 20.672-61.148 46.308-90.716 74.698-3.219-32.269-15.896-60.178-37.158-81.44-21.053-21.054-48.626-33.693-80.495-37.065 95.508-83.885 237.224-87.688 336.935-11.438-6.366.143-13.281 1.017-20.738 2.631-23.207 5.024-51.607 17.46-82.129 35.964-3.542 2.147-4.673 6.76-2.525 10.302 2.148 3.544 6.76 4.671 10.301 2.525 57.542-34.886 104.193-45.653 121.747-28.099 14.544 14.544 9.999 48.658-12.47 93.595-22.108 44.214-58.947 94.005-104.553 141.523-3.292-32.075-15.953-59.818-37.115-80.98zm128.959 128.959c-21.262-21.262-49.17-33.939-81.439-37.158 46.823-48.723 84.735-99.978 107.564-145.635 14.443-28.886 21.893-53.9 22.26-73.8 76.371 99.719 72.608 241.531-11.321 337.087-3.37-31.868-16.011-59.441-37.064-80.494z"/></g></svg>